<svg width="29" height="28" viewBox="0 0 29 28" fill="none" xmlns="http://www.w3.org/2000/svg">
<path d="M13.8078 14.2894C13.7349 12.8906 13.5892 11.8295 13.3706 11.1059C13.1763 10.3824 12.6784 9.26098 11.8769 7.7416C11.0997 6.22222 10.7111 5.04048 10.7111 4.19638C10.7111 3.08699 11.0997 2.11025 11.8769 1.26615C12.6784 0.42205 13.5528 0 14.5 0C15.5444 0 16.443 0.397933 17.196 1.1938C17.9732 1.96555 18.3618 2.97847 18.3618 4.23256C18.3618 5.22136 17.9853 6.41516 17.2324 7.81395C16.4795 9.21275 15.9937 10.286 15.7751 11.0336C15.5808 11.7571 15.4229 12.8424 15.3015 14.2894C16.6616 13.7347 17.6332 13.2524 18.2161 12.8424C18.799 12.4324 19.6612 11.6245 20.8028 10.4186C22.3329 8.80276 23.8023 7.99483 25.2111 7.99483C26.2797 7.99483 27.1784 8.34453 27.907 9.04393C28.6357 9.74332 29 10.5754 29 11.5401C29 12.5771 28.5507 13.4935 27.652 14.2894C26.7533 15.0853 25.5875 15.4832 24.1545 15.4832C23.6688 15.4832 22.8065 15.447 21.5678 15.3747C20.9849 15.3506 20.3534 15.3385 19.6734 15.3385C18.7747 15.3385 17.4146 15.3867 15.593 15.4832C16.6374 16.6649 17.451 17.4849 18.0339 17.9432C18.6168 18.3773 19.6248 18.9561 21.0578 19.6796C22.4908 20.4031 23.523 21.1748 24.1545 21.9948C24.616 22.5978 24.8467 23.3695 24.8467 24.3101C24.8467 25.3471 24.4946 26.2274 23.7902 26.9509C23.0858 27.6503 22.2358 28 21.24 28C20.1956 28 19.2483 27.5779 18.3982 26.7338C17.5724 25.8656 17.0017 24.3342 16.6859 22.1395C16.4916 20.7166 16.273 19.6796 16.0302 19.0284C15.8116 18.3773 15.3258 17.4246 14.5729 16.1705C13.7714 17.4488 13.237 18.4376 12.9698 19.1369C12.7027 19.8363 12.4719 20.8372 12.2776 22.1395C11.9619 24.3342 11.4033 25.8415 10.6018 26.6615C9.80025 27.4815 8.86516 27.8915 7.79648 27.8915C6.80067 27.8915 5.93844 27.5538 5.2098 26.8786C4.50544 26.2033 4.15327 25.3953 4.15327 24.4548C4.15327 23.4901 4.42044 22.6339 4.95477 21.8863C5.5134 21.1146 6.52136 20.3307 7.97864 19.5349C9.46022 18.7149 10.4803 18.0999 11.0389 17.6899C11.5976 17.2799 12.4112 16.5444 13.4799 15.4832L9.58166 15.3385C8.90159 15.3385 8.25796 15.3506 7.65075 15.3747C6.21776 15.4711 5.23409 15.5194 4.69975 15.5194C3.31533 15.5194 2.18593 15.1335 1.31156 14.3618C0.437186 13.59 0 12.6736 0 11.6124C0 10.6236 0.352178 9.7795 1.05653 9.0801C1.78518 8.35659 2.69598 7.99483 3.78894 7.99483C5.3191 7.99483 6.78853 8.71835 8.19724 10.1654C9.60595 11.6124 10.5168 12.4927 10.9296 12.8062C11.5126 13.2162 12.4719 13.7106 13.8078 14.2894Z" fill="url(#paint0_linear_2473_576)"/>
<defs>
<linearGradient id="paint0_linear_2473_576" x1="1.00221" y1="1.41403e-06" x2="33.6794" y2="13.2349" gradientUnits="userSpaceOnUse">
<stop stop-color="#FF8132"/>
<stop offset="1" stop-color="#FF6467"/>
</linearGradient>
</defs>
</svg>
